<svg xmlns="http://www.w3.org/2000/svg" viewBox="0 0 581.85 302.09"><path fill="#333e48" d="M371.44 199.87h-.75v1.15h-.39v-3.08h1.26a.89.89 0 0 1 .94 1 .9.9 0 0 1-.66.94l.7 1.18h-.45Zm-.75-.35h.83a.61.61 0 0 0 0-1.22h-.83Z"/><path fill="#333e48" d="M371.34 202.36a2.88 2.88 0 1 1 2.87-2.88 2.88 2.88 0 0 1-2.87 2.88Zm0-5.38a2.5 2.5 0 1 0 2.49 2.5 2.5 2.5 0 0 0-2.49-2.5Z"/><path fill="#ed6516" d="M235.91 53.97a77.87 77.87 0 0 1 110.13 0l22-22a109 109 0 0 0-154.21 0Z"/><path fill="#333e48" d="M374.45 38.9 352.3 61.09a77.92 77.92 0 0 1 5.43 88.1l-40.09-40.1-21.84-51.36h-.11v69.36l43.27 43.27a77.89 77.89 0 0 1-96 0l43.3-43.27v-69.1l-21.95 51.1-40.1 40.1a77.9 77.9 0 0 1 5.44-88.1L207.5 38.9a109 109 0 1 0 167 0Z"/><rect width="51.98" height="62.32" x="529.87" y="239.78" fill="#f06414" rx="6.1"/><path fill="#fff" d="m550.9 283.48 15.56-14.7a20 20 0 0 0 2.63-2.72 8.92 8.92 0 0 0 1.81-4.85c.08-1.17.07-2.35.06-3.52a8.62 8.62 0 0 0-.16-1.6 9 9 0 0 0-.57-1.8l-26.3 24.92a34.45 34.45 0 0 0-2.48 2.5 7.88 7.88 0 0 0-1.86 5.15v5.54h26.85a5 5 0 0 0 2.88-.91 6.65 6.65 0 0 0 2.87-6v-2ZM567.52 250.89a5.75 5.75 0 0 0-3.71-1.42h-15.64a5.79 5.79 0 0 0-1.55.21 7.92 7.92 0 0 0-4.55 3.89 10.76 10.76 0 0 0-1.48 5.78v4h8.9v-5h10.1Z"/><path fill="#333e48" d="M497.07 249.45v16.34a.42.42 0 0 1-.42.42h-25.27a.42.42 0 0 1-.42-.42v-16.34a.41.41 0 0 0-.41-.41h-14.07a.41.41 0 0 0-.42.41v43a.41.41 0 0 0 .42.41h14.07a.41.41 0 0 0 .41-.41v-16.36a.42.42 0 0 1 .42-.42h25.27a.42.42 0 0 1 .42.42v16.34a.41.41 0 0 0 .41.41h14.08a.41.41 0 0 0 .41-.41v-43a.41.41 0 0 0-.41-.41h-14.08a.41.41 0 0 0-.41.43ZM160.8 260.09v-10.64a.41.41 0 0 0-.42-.41h-37.22a.4.4 0 0 0-.37.22l-6.48 12.72a.41.41 0 0 0 0 .19v30.25a.41.41 0 0 0 .42.41h43.73a.41.41 0 0 0 .42-.41v-10.66a.42.42 0 0 0-.42-.42h-28.87a.42.42 0 0 1-.42-.42v-4.83a.42.42 0 0 1 .42-.42h23.85a.42.42 0 0 0 .42-.42v-8.61a.42.42 0 0 0-.42-.42h-23.85a.42.42 0 0 1-.42-.42v-4.84a.42.42 0 0 1 .42-.42h28.82a.41.41 0 0 0 .39-.45ZM329.4 249.09h-16.22a.4.4 0 0 0-.37.22l-21.9 43a.42.42 0 0 0 .38.6h15.79a.4.4 0 0 0 .37-.22l13.47-26.43a.42.42 0 0 1 .74 0l13.46 26.43a.42.42 0 0 0 .38.22h15.79a.41.41 0 0 0 .37-.6l-21.89-43a.41.41 0 0 0-.37-.22ZM289.28 249.26l-9.6 18.83a.41.41 0 0 1-.74 0l-9.6-18.83a.4.4 0 0 0-.37-.22h-10.7a.42.42 0 0 0-.38.22l-9.59 18.83a.41.41 0 0 1-.74 0l-9.6-18.83a.4.4 0 0 0-.37-.22H221.8a.41.41 0 0 0-.38.6l21.9 43a.4.4 0 0 0 .37.22h8.48a.41.41 0 0 0 .37-.22l10.71-21a.42.42 0 0 1 .74 0l10.71 21a.4.4 0 0 0 .37.22h8.46a.43.43 0 0 0 .38-.22l21.9-43a.41.41 0 0 0-.37-.6h-15.79a.4.4 0 0 0-.37.22ZM438.41 249.09h-32.79a14.27 14.27 0 0 0-4.25.63.4.4 0 0 0-.25.21l-7 13.77a.41.41 0 0 0 0 .19v19.93c0 5 5.18 9.06 11.56 9.06h32.79c6.39 0 11.57-4.05 11.57-9.06v-7.73a.42.42 0 0 0-.42-.42h-14.13a.42.42 0 0 0-.42.42v3.17a2.09 2.09 0 0 1-2.09 2.09h-21.93a2.1 2.1 0 0 1-2.09-2.09v-16.64a2.1 2.1 0 0 1 2.09-2.09h21.93a2.09 2.09 0 0 1 2.09 2.09v3.17a.42.42 0 0 0 .42.42h14.07a.42.42 0 0 0 .42-.42v-7.7c0-5-5.18-9-11.57-9ZM394.05 249.09h-56.9a.41.41 0 0 0-.37.6l5.43 10.66a.41.41 0 0 0 .37.23h15.15a.42.42 0 0 1 .42.42v31.47a.41.41 0 0 0 .41.41h14.08a.41.41 0 0 0 .41-.41v-31.52a.42.42 0 0 1 .42-.42h15.15a.42.42 0 0 0 .37-.23l5.43-10.66a.41.41 0 0 0-.37-.55ZM93.89 292.61l21.89-43a.41.41 0 0 0-.37-.6H99.62a.42.42 0 0 0-.38.22L85.8 275.69a.42.42 0 0 1-.74 0l-13.49-26.43a.4.4 0 0 0-.37-.22H55.41a.42.42 0 0 0-.38.6l21.9 43a.4.4 0 0 0 .37.22h16.22a.41.41 0 0 0 .37-.25ZM48.25 249.71a.41.41 0 0 0-.26-.22 14.87 14.87 0 0 0-3.64-.45H11.56C5.17 249.09 0 253.09 0 258.09v25.67a7.43 7.43 0 0 0 1.06 3.8.42.42 0 0 0 .62.13l13.06-10.08a.42.42 0 0 0 .16-.33v-14.66a2.1 2.1 0 0 1 2.09-2.09h21.93a2.1 2.1 0 0 1 2.09 2.09v16.63a2.1 2.1 0 0 1-2.09 2.09H20a.38.38 0 0 0-.25.09l-12.88 9.94a.42.42 0 0 0 .12.73 14.4 14.4 0 0 0 4.57.73h32.79c6.39 0 11.56-4.05 11.56-9.06v-18.92a.41.41 0 0 0 0-.19ZM202.71 266.21H188.3a.41.41 0 0 0-.41.42v8.75a.6.6 0 0 0 .2.46l18.32 16.88a.37.37 0 0 0 .28.11h18.87a.41.41 0 0 0 .24-.74l-17.86-16.45h.31c6.39 0 11.56-4.06 11.56-9.06v-8.49c0-5-5.17-9.06-11.56-9.06h-41a.41.41 0 0 0-.41.41v43a.41.41 0 0 0 .41.41h14.07a.41.41 0 0 0 .42-.41v-31.49a.42.42 0 0 1 .42-.42h20.48a2.09 2.09 0 0 1 2.09 2.09v1.47a2.08 2.08 0 0 1-2.02 2.12ZM519.8 241.38h.58a3.82 3.82 0 0 1 .68 0 .76.76 0 0 1 .35.16.78.78 0 0 1 .26.64.75.75 0 0 1-.62.81l.86 1.16h-.76l-.75-1.06v1.06h-.6Zm.62.5v.74h.06a.81.81 0 0 0 .39-.06.32.32 0 0 0 .15-.3.34.34 0 0 0-.11-.29.6.6 0 0 0-.38-.09Z"/><path fill="#333e48" d="M520.7 245.21a2.43 2.43 0 1 1 2.42-2.43 2.43 2.43 0 0 1-2.42 2.43Zm2-2.43a2 2 0 1 0-2 2 2 2 0 0 0 2-2Z"/></svg>